<svg xmlns="http://www.w3.org/2000/svg" version="1.1" xmlns:xlink="http://www.w3.org/1999/xlink" xmlns:svgjs="http://svgjs.dev/svgjs" width="1440" height="560" preserveAspectRatio="none" viewBox="0 0 1440 560"><g mask="url(&quot;#SvgjsMask1498&quot;)" fill="none"><rect width="1440" height="560" x="0" y="0" fill="#0e2a47"></rect><path d="M1440 0L1318.95 0L1440 122.41z" fill="rgba(255, 255, 255, .1)"></path><path d="M1318.95 0L1440 122.41L1440 238.74L1087.77 0z" fill="rgba(255, 255, 255, .075)"></path><path d="M1087.77 0L1440 238.74L1440 393.11L947.06 0z" fill="rgba(255, 255, 255, .05)"></path><path d="M947.06 0L1440 393.11L1440 482.52L921.8699999999999 0z" fill="rgba(255, 255, 255, .025)"></path><path d="M0 560L461.2 560L0 381.52z" fill="rgba(0, 0, 0, .1)"></path><path d="M0 381.52L461.2 560L938.27 560L0 311.63z" fill="rgba(0, 0, 0, .075)"></path><path d="M0 311.63L938.27 560L1199.06 560L0 192.62z" fill="rgba(0, 0, 0, .05)"></path><path d="M0 192.62L1199.06 560L1260.06 560L0 74.11z" fill="rgba(0, 0, 0, .025)"></path></g><defs><mask id="SvgjsMask1498"><rect width="1440" height="560" fill="#ffffff"></rect></mask></defs></svg>